<svg width="1772" height="764" viewBox="0 0 1772 764" fill="none" xmlns="http://www.w3.org/2000/svg">
<g opacity="0.8">
<ellipse opacity="0.25" cx="26.8009" cy="26.7502" rx="26.8009" ry="26.7502" transform="matrix(0.992563 -0.121732 0.122007 0.992529 51.5772 663.139)" fill="#CFDAE6"/>
<ellipse opacity="0.6" cx="6.41925" cy="6.40709" rx="6.41925" ry="6.40709" transform="matrix(0.992565 -0.121713 0.122026 0.992527 1.17413 666.784)" fill="#CFDAE6"/>
<ellipse opacity="0.45" cx="12.8385" cy="12.8142" rx="12.8385" ry="12.8142" transform="matrix(0.992563 -0.121732 0.122007 0.992529 42.8853 734.531)" fill="#CFDAE6"/>
<path d="M82.4059 687.178L146.97 658.7" stroke="#CFDAE6" stroke-width="1.73913" stroke-linecap="round" stroke-linejoin="round"/>
<path opacity="0.7" d="M54.3751 682.357L10.5376 672.954" stroke="#E0B4B7" stroke-width="0.702679" stroke-linecap="round" stroke-linejoin="round" stroke-dasharray="1.41 2.11"/>
<path d="M82.0295 687.659L62.6636 734.366" stroke="#BACAD9" stroke-width="0.702679" stroke-linecap="round" stroke-linejoin="round" stroke-dasharray="1.41 2.11"/>
<ellipse opacity="0.45" cx="11.2358" cy="11.2211" rx="11.2358" ry="11.2211" transform="matrix(0.920792 0.390405 -0.391057 0.920217 149.449 638.908)" fill="#CFDAE6"/>
<ellipse cx="11.2358" cy="5.61056" rx="11.2358" ry="5.61056" transform="matrix(-0.920792 -0.390405 0.391057 -0.920217 161.365 668.333)" fill="#CFDAE6"/>
</g>
<ellipse opacity="0.25" cx="35.8254" cy="35.8127" rx="35.8254" ry="35.8127" transform="matrix(0.996203 -0.0870566 0.087255 0.996186 120.743 55.4873)" fill="#CFDAE6"/>
<ellipse opacity="0.3" cx="26.5373" cy="26.5279" rx="26.5373" ry="26.5279" transform="matrix(0.996203 -0.0870566 0.087255 0.996186 130.806 63.9281)" fill="#CFDAE6"/>
<ellipse opacity="0.4" cx="29.191" cy="29.1807" rx="29.191" ry="29.1807" transform="matrix(0.996203 -0.0870566 0.087255 0.996186 323.354 178.915)" stroke="#CFDAE6"/>
<ellipse opacity="0.5" cx="13.2687" cy="13.264" rx="13.2687" ry="13.264" transform="matrix(0.996203 -0.0870566 0.087255 0.996186 145.182 75.9863)" fill="#BACAD9"/>
<ellipse cx="6.63433" cy="13.264" rx="6.63433" ry="13.264" transform="matrix(0.996203 -0.0870566 0.087255 0.996186 145.182 75.9863)" fill="#BACAD9"/>
<g opacity="0.45">
<ellipse opacity="0.45" cx="7.96119" cy="7.95838" rx="7.96119" ry="7.95838" transform="matrix(0.996203 -0.0870566 0.087255 0.996186 346.355 198.208)" fill="#E6A1A6"/>
<ellipse cx="3.9806" cy="7.95838" rx="3.9806" ry="7.95838" transform="matrix(-0.996203 0.0870566 0.087255 0.996186 354.286 197.515)" fill="#E6A1A6"/>
</g>
<ellipse cx="1.99061" cy="1.9896" rx="1.99061" ry="1.9896" transform="matrix(0.996203 -0.0870566 0.087255 0.996186 401.129 200.079)" fill="#CFDAE6"/>
<ellipse opacity="0.35" cx="1.99061" cy="1.9896" rx="1.99061" ry="1.9896" transform="matrix(0.996203 -0.0870566 0.087255 0.996186 357.478 249.163)" fill="#E0B4B7"/>
<ellipse opacity="0.35" cx="2.65415" cy="2.6528" rx="2.65415" ry="2.6528" transform="matrix(0.996203 -0.0870566 0.087255 0.996186 349.608 159.312)" fill="#E0B4B7"/>
<path opacity="0.8" d="M159.5 89.0695L344.771 199.834" stroke="#CFDAE6"/>
<g opacity="0.8">
<ellipse cx="13.763" cy="13.8807" rx="13.763" ry="13.8807" transform="matrix(0.981668 -0.190598 0.19102 0.981586 1299.42 30.2256)" stroke="#CFDAE6" stroke-width="0.941176"/>
<ellipse opacity="0.45" cx="10.4265" cy="10.5157" rx="10.4265" ry="10.5157" transform="matrix(0.981668 -0.190598 0.19102 0.981586 1303.3 32.9003)" fill="#BACAD9"/>
<ellipse cx="5.21324" cy="10.5157" rx="5.21324" ry="10.5157" transform="matrix(0.981668 -0.190598 0.19102 0.981586 1313.53 30.9128)" fill="#BACAD9"/>
<path d="M1302.84 34.6998L1263.17 17.3098" stroke="#CFDAE6" stroke-width="0.941176"/>
<ellipse cx="4.0142" cy="4.04853" rx="4.0142" ry="4.04853" transform="matrix(0.981668 -0.190598 0.19102 0.981586 1255.15 12.8975)" stroke="#CFDAE6" stroke-width="0.941176"/>
<ellipse cx="3.44074" cy="3.47017" rx="3.44074" ry="3.47017" transform="matrix(0.981668 -0.190598 0.19102 0.981586 1268.85 83.2937)" fill="#F7E1AD"/>
<path d="M1306.2 52.178L1275.3 83.8338" stroke="#CFDAE6" stroke-width="0.941176"/>
</g>
<g opacity="0.85">
<ellipse cx="21.396" cy="21.3752" rx="21.396" ry="21.3752" transform="matrix(0.961345 -0.275345 0.27593 0.961178 140.708 216.069)" stroke="#CFDAE6" stroke-width="0.8"/>
<path d="M161.726 211.866L162.102 211.759L161.994 211.382L161.618 211.49L161.726 211.866ZM148.426 224.748L148.054 224.628L147.934 225L148.307 225.12L148.426 224.748ZM161.942 212.619L162.05 212.995L162.426 212.887L162.318 212.511L161.942 212.619ZM149.172 224.988L149.052 225.36L149.425 225.48L149.544 225.107L149.172 224.988ZM172.558 249.6L172.182 249.708L172.29 250.084L172.666 249.976L172.558 249.6ZM186.127 235.807L186.505 235.909L186.606 235.531L186.228 235.43L186.127 235.807ZM172.342 248.848L172.234 248.472L171.858 248.58L171.966 248.956L172.342 248.848ZM185.371 235.604L185.472 235.226L185.094 235.124L184.993 235.502L185.371 235.604ZM161.618 211.49C154.939 213.403 150.029 218.484 148.054 224.628L148.799 224.868C150.698 218.962 155.416 214.081 161.834 212.242L161.618 211.49ZM162.318 212.511L162.102 211.759L161.35 211.974L161.566 212.726L162.318 212.511ZM149.544 225.107C151.367 219.44 155.893 214.758 162.05 212.995L161.834 212.242C155.416 214.081 150.698 218.962 148.799 224.868L149.544 225.107ZM148.307 225.12L149.052 225.36L149.291 224.615L148.546 224.375L148.307 225.12ZM172.666 249.976C179.679 247.968 184.741 242.466 186.505 235.909L185.749 235.706C184.054 242.009 179.189 247.294 172.45 249.224L172.666 249.976ZM171.966 248.956L172.182 249.708L172.934 249.493L172.719 248.74L171.966 248.956ZM184.993 235.502C183.366 241.551 178.698 246.621 172.234 248.472L172.45 249.224C179.189 247.294 184.054 242.009 185.749 235.706L184.993 235.502ZM186.228 235.43L185.472 235.226L185.269 235.982L186.025 236.185L186.228 235.43Z" fill="#DDE4EB"/>
<ellipse cx="3.20987" cy="3.20632" rx="3.20987" ry="3.20632" transform="matrix(0.961345 -0.275345 0.27593 0.961178 157.307 207.98)" fill="#F0F2F5" stroke="#CFDAE6" stroke-width="0.869565"/>
<ellipse cx="3.20987" cy="3.20632" rx="3.20987" ry="3.20632" transform="matrix(0.961345 -0.275345 0.27593 0.961178 183.774 222.634)" fill="#CFDAE6"/>
<ellipse cx="3.20987" cy="3.20632" rx="3.20987" ry="3.20632" transform="matrix(0.961345 -0.275345 0.27593 0.961178 142.636 234.417)" fill="#F7E1AD"/>
<ellipse cx="3.20987" cy="3.20632" rx="3.20987" ry="3.20632" transform="matrix(0.961345 -0.275345 0.27593 0.961178 169.103 249.071)" fill="#CFDAE6"/>
</g>
<g opacity="0.33">
<ellipse opacity="0.45" cx="14.3386" cy="14.3538" rx="14.3386" ry="14.3538" transform="matrix(-0.087252 -0.996152 0.996237 -0.0870596 1562.04 546.883)" fill="#BACAD9"/>
<ellipse cx="14.3386" cy="7.17689" rx="14.3386" ry="7.17689" transform="matrix(0.087252 0.996152 -0.996237 0.0870596 1588.13 515.817)" fill="#BACAD9"/>
<ellipse cx="7.17695" cy="7.16922" rx="7.17695" ry="7.16922" transform="matrix(0.984842 -0.173455 0.173841 0.984774 1636.82 491.602)" fill="#CFDAE6"/>
<path d="M1574.73 511.455L1573.54 422.802" stroke="#BACAD9" stroke-width="1.16667"/>
<path d="M1411.06 476.039L1557.19 525.566" stroke="#BACAD9" stroke-width="1.16667"/>
<path d="M1581.95 549.48L1643.32 677.526L1460.04 604.905L1558.68 541.762" stroke="#CFDAE6" stroke-width="1.16667"/>
<path opacity="0.6" d="M1596.86 521.201L1637.73 500.904" stroke="#E0B4B7" stroke-width="1.16667"/>
<path d="M1648.23 490.18L1678.86 427.417" stroke="#BACAD9" stroke-width="1.16667"/>
<path d="M1733.32 537.708L1652.12 499.827" stroke="#CFDAE6" stroke-width="1.16667"/>
<ellipse cx="10.7654" cy="10.7538" rx="10.7654" ry="10.7538" transform="matrix(0.984842 -0.173455 0.173841 0.984774 1561.41 402.969)" fill="#C1D1E0"/>
<ellipse cx="10.7654" cy="10.7538" rx="10.7654" ry="10.7538" transform="matrix(0.984842 -0.173455 0.173841 0.984774 1727.12 532.479)" fill="#D3DDE6"/>
<ellipse cx="6.45925" cy="6.4523" rx="6.45925" ry="6.4523" transform="matrix(0.984842 -0.173455 0.173841 0.984774 1453.53 601.046)" fill="#C1D1E0"/>
<ellipse cx="10.7654" cy="10.7538" rx="10.7654" ry="10.7538" transform="matrix(0.984842 -0.173455 0.173841 0.984774 1387.11 464.241)" fill="#D1DEED" fill-opacity="0.6"/>
<ellipse cx="7.17695" cy="7.16922" rx="7.17695" ry="7.16922" transform="matrix(0.984842 -0.173455 0.173841 0.984774 1675.49 413.45)" fill="#D1DEED" fill-opacity="0.6"/>
<ellipse cx="6.45925" cy="6.4523" rx="6.45925" ry="6.4523" transform="matrix(0.984842 -0.173455 0.173841 0.984774 1636.88 673.581)" fill="#E0B4B7"/>
</g>
</svg>
