<svg width="192" height="64" viewBox="0 0 192 64" fill="none" xmlns="http://www.w3.org/2000/svg">
<path d="M32.8826 51.0191H26.0577L14.6667 13.3333H22.4063L29.4253 41.3333H29.5187L36.5377 13.3333H44.2773L32.8826 51.0191Z" fill="#0090D4"/>
<path d="M58.3602 38.6165C55.4331 39.1508 49.6125 39.4406 49.6125 43.4142C49.6125 45.0135 50.3817 46.3192 52.0655 46.3192C54.9963 46.3192 57.0124 44.577 58.3602 42.7858V38.6165ZM58.741 48.5506C56.1014 50.4396 54.5147 51.6024 51.1022 51.6024C46.439 51.6024 42.642 48.4039 42.642 43.561C42.642 35.9072 52.6367 34.3568 58.3602 33.7284C58.8418 29.9504 57.5874 28.5958 54.9478 28.5958C52.689 28.5958 51.0537 29.6118 50.6729 31.9862L43.8442 30.9213C45.431 25.1527 49.2765 23.3126 54.8955 23.3126C62.1535 23.3126 65.4726 26.8046 65.4726 31.8884V45.3559C65.4726 47.2938 65.5697 49.2317 66.4359 51.0229H59.5139L58.741 48.5506Z" fill="#0090D4"/>
<path d="M76.9607 26.703C79.2195 24.8103 82.0047 23.3089 84.9841 23.3089C87.9149 23.3089 92.0517 25.1038 92.0517 31.7905V51.0191H84.9356V34.6955C84.9356 32.513 85.0812 29.0774 82.0047 29.0774C79.9401 29.0774 78.3011 30.5789 76.9607 32.0313V51.0191H69.8446V23.8921H76.9607V26.703Z" fill="#0090D4"/>
<path d="M104.018 23.8921H109.543V29.8488H104.018V43.6551C104.018 44.9646 104.406 46.3192 106.71 46.3192C107.915 46.3192 108.681 45.8338 109.543 45.3032V50.7783C108.054 51.2148 106.515 51.6024 104.981 51.6024C100.557 51.6024 96.9053 49.085 96.9053 43.1734V29.8488H93.5899V23.8921H96.9053V17.1113H104.018V23.8921Z" fill="#0090D4"/>
<path d="M118.295 28.6409C121.035 25.3935 123.245 23.3089 126.512 23.3089H127.856V30.481C127.184 30.3343 126.512 30.1875 125.788 30.1875C123.962 30.1875 118.295 31.8846 118.295 39.1019V51.0154H111.182V23.8884H118.295V28.6409Z" fill="#0090D4"/>
<path d="M144.448 37.4575C144.448 34.0633 143.772 28.592 139.931 28.592C136.081 28.592 135.409 34.0633 135.409 37.4575C135.409 40.8479 136.085 46.3192 139.931 46.3192C143.772 46.3192 144.448 40.8479 144.448 37.4575ZM128.11 37.4575C128.11 30.2402 132.045 23.3089 139.931 23.3089C147.812 23.3089 151.751 30.2402 151.751 37.4575C151.751 44.6259 147.764 51.6024 139.931 51.6024C132.098 51.6024 128.11 44.6259 128.11 37.4575Z" fill="#0090D4"/>
<path d="M162.28 26.703C164.535 24.8103 167.324 23.3089 170.303 23.3089C173.234 23.3089 177.367 25.1038 177.367 31.7905V51.0191H170.254V34.6955C170.254 32.513 170.396 29.0774 167.324 29.0774C165.259 29.0774 163.624 30.5789 162.28 32.0313V51.0191H155.163V23.8921H162.28V26.703Z" fill="#0090D4"/>
</svg>
