<svg width="144" height="48" viewBox="0 0 144 48" fill="none" xmlns="http://www.w3.org/2000/svg">
<path d="M24.6619 38.2643H19.5433L11 10H16.8047L22.069 31H22.139L27.4033 10H33.208L24.6619 38.2643Z" fill="white"/>
<path d="M43.7702 28.9624C41.5749 29.3631 37.2095 29.5804 37.2095 32.5607C37.2095 33.7601 37.7863 34.7394 39.0492 34.7394C41.2473 34.7394 42.7594 33.4327 43.7702 32.0894V28.9624ZM44.0558 36.413C42.0761 37.8297 40.8861 38.7018 38.3267 38.7018C34.8293 38.7018 31.9816 36.3029 31.9816 32.6707C31.9816 26.9304 39.4776 25.7676 43.7702 25.2963C44.1314 22.4628 43.1906 21.4468 41.2109 21.4468C39.5168 21.4468 38.2903 22.2088 38.0047 23.9896L32.8832 23.191C34.0733 18.8645 36.9574 17.4845 41.1717 17.4845C46.6152 17.4845 49.1045 20.1035 49.1045 23.9163V34.0169C49.1045 35.4704 49.1773 36.9238 49.8269 38.2672H44.6355L44.0558 36.413Z" fill="white"/>
<path d="M57.7205 20.0273C59.4146 18.6077 61.5035 17.4817 63.738 17.4817C65.9362 17.4817 69.0387 18.8278 69.0387 23.8429V38.2643H63.7016V26.0216C63.7016 24.3848 63.8108 21.8081 61.5035 21.8081C59.955 21.8081 58.7258 22.9341 57.7205 24.0235V38.2643H52.3834V17.9191H57.7205V20.0273Z" fill="white"/>
<path d="M78.0133 17.9191H82.1575V22.3866H78.0133V32.7413C78.0133 33.7234 78.3045 34.7394 80.0322 34.7394C80.9366 34.7394 81.5107 34.3754 82.1575 33.9774V38.0837C81.0402 38.4111 79.8866 38.7018 78.7357 38.7018C75.4175 38.7018 72.679 36.8137 72.679 32.3801V22.3866H70.1924V17.9191H72.679V12.8335H78.0133V17.9191Z" fill="white"/>
<path d="M88.721 21.4807C90.7763 19.0452 92.434 17.4817 94.8841 17.4817H95.8922V22.8608C95.3882 22.7507 94.8842 22.6406 94.3409 22.6406C92.9716 22.6406 88.721 23.9135 88.721 29.3264V38.2615H83.3867V17.9163H88.721V21.4807Z" fill="white"/>
<path d="M108.336 28.0931C108.336 25.5475 107.829 21.444 104.948 21.444C102.061 21.444 101.557 25.5475 101.557 28.0931C101.557 30.6359 102.064 34.7394 104.948 34.7394C107.829 34.7394 108.336 30.6359 108.336 28.0931ZM96.0826 28.0931C96.0826 22.6802 99.034 17.4817 104.948 17.4817C110.859 17.4817 113.813 22.6802 113.813 28.0931C113.813 33.4694 110.823 38.7018 104.948 38.7018C99.0732 38.7018 96.0826 33.4694 96.0826 28.0931Z" fill="white"/>
<path d="M121.71 20.0273C123.401 18.6077 125.493 17.4817 127.727 17.4817C129.925 17.4817 133.025 18.8278 133.025 23.8429V38.2643H127.691V26.0216C127.691 24.3848 127.797 21.8081 125.493 21.8081C123.944 21.8081 122.718 22.9341 121.71 24.0235V38.2643H116.373V17.9191H121.71V20.0273Z" fill="white"/>
</svg>
